{"title":"Supernatural.S05E17.[Apple-iPod Mp4].m4v","uid":5487425,"size":300358519,"categoryP":"video","categoryS":"handheld","magnet":"?xt=urn:btih:3be2236b9d66db4f5daf3055f5eb9a94fb80bc67&amp;dn=Supernatural.S05E17.%5BApple-iPod+Mp4%5D.m4v&amp;tr=udp%3A%2F%2Ftracker.openbittorrent.com%3A80&amp;tr=udp%3A%2F%2Fopen.demonii.com%3A1337&amp;tr=udp%3A%2F%2Ftracker.coppersurfer.tk%3A6969&amp;tr=udp%3A%2F%2Fexodus.desync.com%3A6969","seeders":0,"leechers":1,"uploader":"Harrharrr","files":-1,"time":1270809514,"description":"General\nComplete name                    : L:SeriesSupernatural.S05E17.l[Apple-iPod Mp4].m4v\nFormat                           : MPEG-4\nCodec ID                         : M4V \nFile size                        : 286 MiB\nDuration                         : 40mn 22s\nOverall bit rate                 : 992 Kbps\nEncoded date                     : UTC 2010-04-09 08:24:08\nTagged date                      : UTC 2010-04-09 08:24:08\nWriting library                  : AVS \n\nVideo\nID                               : 1\nFormat                           : MPEG-4 Visual\nFormat profile                   : Advanced Simple@L1\nFormat settings, BVOP            : No\nFormat settings, QPel            : No\nFormat settings, GMC             : No warppoints\nFormat settings, Matrix          : Default (H.263)\nCodec ID                         : 20\nDuration                         : 40mn 22s\nBit rate mode                    : Constant\nBit rate                         : 895 Kbps\nNominal bit rate                 : 64.0 Kbps\nWidth                            : 320 pixels\nHeight                           : 240 pixels\nDisplay aspect ratio             : 4:3\nFrame rate mode                  : Constant\nFrame rate                       : 30.000 fps\nResolution                       : 8 bits\nColorimetry                      : 4:2:0\nScan type                        : Progressive\nBits/(Pixel*Frame)               : 0.388\nStream size                      : 258 MiB (90%)\nLanguage                         : English\nEncoded date                     : UTC 2010-04-09 08:24:08\nTagged date                      : UTC 2010-04-09 08:24:08\n\nAudio\nID                               : 2\nFormat                           : AAC\nFormat/Info                      : Advanced Audio Codec\nFormat version                   : Version 4\nFormat profile                   : LC\nFormat settings, SBR             : No\nCodec ID                         : 40\nDuration                         : 40mn 21s\nBit rate mode                    : Variable\nBit rate                         : 93.4 Kbps\nMaximum bit rate                 : 96.0 Kbps\nChannel(s)                       : 2 channels\nChannel positions                : Front: L R\nSampling rate                    : 48.0 KHz\nStream size                      : 27.0 MiB (9%)\nLanguage                         : English\nEncoded date                     : UTC 2010-04-09 08:24:08\nTagged date                      : UTC 2010-04-09 08:24:08\n\n","torrent":{"xt":"urn:btih:3be2236b9d66db4f5daf3055f5eb9a94fb80bc67","amp;dn":"Supernatural.S05E17.%5BApple-iPod+Mp4%5D.m4v","amp;tr":["udp%3A%2F%2Ftracker.openbittorrent.com%3A80","udp%3A%2F%2Fopen.demonii.com%3A1337","udp%3A%2F%2Ftracker.coppersurfer.tk%3A6969","udp%3A%2F%2Fexodus.desync.com%3A6969"],"infoHash":"3be2236b9d66db4f5daf3055f5eb9a94fb80bc67","infoHashBuffer":{"type":"Buffer","data":[59,226,35,107,157,102,219,79,93,175,48,85,245,235,154,148,251,128,188,103]},"announce":[],"urlList":[]}}